Coordinates
version=1
nRows=7
nColumns=40
inDegrees=yes

Units are S.I. units (second, meters, Newtons, ...)
Angles are in degrees.

endheader
time	pelvis_tilt	pelvis_list	pelvis_rotation	pelvis_tx	pelvis_ty	pelvis_tz	hip_flexion_r	hip_adduction_r	hip_rotation_r	knee_angle_r	knee_angle_r_beta	ankle_angle_r	subtalar_angle_r	mtp_angle_r	hip_flexion_l	hip_adduction_l	hip_rotation_l	knee_angle_l	knee_angle_l_beta	ankle_angle_l	subtalar_angle_l	mtp_angle_l	lumbar_extension	lumbar_bending	lumbar_rotation	arm_flex_r	arm_add_r	arm_rot_r	elbow_flex_r	pro_sup_r	wrist_flex_r	wrist_dev_r	arm_flex_l	arm_add_l	arm_rot_l	elbow_flex_l	pro_sup_l	wrist_flex_l	wrist_dev_l
      4.21000000	     -3.33446964	     -5.74953909	      5.89416090	      1.07231003	      0.92519882	      0.48501045	      1.55470047	      4.57456452	    -14.01816943	     10.91171799	     10.91171799	     15.32724246	      6.15552239	     -6.14963373	     30.16399465	     -9.16406614	     -2.23339015	     22.72504138	     22.72504138	      2.62092531	    -10.01255180	      6.09072266	     -9.75556584	      6.74228503	      4.22626715	     33.99781994	    -13.42823207	      5.92242156	     75.86488256	     44.56754221	      0.00000000	      0.00000000	     -3.99636347	    -11.00789986	    -16.78984587	     28.58238480	     47.56935817	      0.00000000	      0.00000000
      4.22357143	     -3.35226516	     -5.80318106	      5.71773154	      1.07415904	      0.92423279	      0.48269960	      1.10027939	      4.49804709	    -13.81398638	     11.01041788	     11.01041788	     15.75391418	      6.20067519	     -6.20666759	     29.39797928	     -8.98221847	     -2.12926400	     23.03174314	     23.03174314	      2.90664288	    -10.26597779	      5.94409384	     -9.47689732	      6.75914151	      4.27613034	     33.31153068	    -13.27799011	      6.17163835	     75.66955168	     44.56422015	      0.00000000	      0.00000000	     -4.15521897	    -10.86395190	    -16.81196527	     28.54278522	     47.56722555	      0.00000000	      0.00000000
      4.23714286	     -3.27081998	     -5.71098653	      5.57416038	      1.07590454	      0.92368172	      0.48005487	      0.68248243	      4.20131526	    -13.70134594	     11.45568721	     11.45568721	     16.59157347	      6.32151071	     -4.82768865	     28.47842126	     -8.54868912	     -1.67736895	     23.12202389	     23.12202389	      2.76876987	    -11.33639850	      5.39978541	     -9.33489878	      6.57417079	      4.31590772	     32.61019382	    -13.73116320	      7.91542996	     74.91132566	     44.55189837	      0.00000000	      0.00000000	     -4.18684121	    -10.72884232	    -17.20748452	     28.62604472	     47.59456307	      0.00000000	      0.00000000
      4.25071429	     -3.25004056	     -5.70195081	      5.52966789	      1.07754638	      0.92311784	      0.47727927	      0.26945291	      4.01367983	    -13.58377114	     11.68250547	     11.68250547	     16.88240397	      6.27445124	     -4.82456582	     27.85963936	     -8.29845462	     -1.51811587	     23.43356741	     23.43356741	      3.22805920	    -11.45103385	      5.13300593	     -9.16059052	      6.53100656	      4.10356705	     31.64631294	    -13.59639941	      8.15354100	     74.61216537	     44.55166031	      0.00000000	      0.00000000	     -4.20778349	    -10.58172502	    -17.21717266	     28.61196311	     47.59208313	      0.00000000	      0.00000000
      4.26428571	     -3.21128780	     -5.63163454	      5.54148122	      1.07906884	      0.92280237	      0.47425507	     -0.10377327	      3.73738381	    -13.51551863	     12.01462920	     12.01462920	     17.12680982	      6.13410228	     -4.78801147	     27.30168283	     -7.98009472	     -1.31573523	     23.74362825	     23.74362825	      3.76865356	    -11.59077431	      4.82614821	     -9.06589126	      6.40206148	      3.87197195	     30.55427822	    -13.54682030	      8.42535592	     74.18019048	     44.55396337	      0.00000000	      0.00000000	     -4.08704090	    -10.48519308	    -17.22018968	     28.64745118	     47.59136857	      0.00000000	      0.00000000
      4.27785714	     -3.25592596	     -5.43437791	      5.53425668	      1.08017944	      0.92266385	      0.47101441	      0.09831175	      3.16825334	    -13.44841512	     13.35407625	     13.35407625	     18.44367957	      5.94437368	     -2.04467710	     26.85063565	     -7.51705408	     -1.14679641	     23.91431149	     23.91431149	      3.87490920	    -12.09841943	      3.89397365	     -8.86084048	      6.13923549	      3.60004822	     29.97124355	    -13.89132591	     10.09349402	     72.14688926	     44.61175392	      0.00000000	      0.00000000	     -3.63094049	    -10.44739298	    -17.51563506	     28.20709377	     47.57253793	      0.00000000	      0.00000000
      4.29142857	     -3.14660433	     -5.36266739	      5.66808856	      1.08139149	      0.92296412	      0.46755810	     -0.21327489	      2.84526896	    -13.48629775	     13.88440397	     13.88440397	     18.47389837	      5.70795250	     -2.06964618	     26.38272229	     -7.20467840	     -0.92372402	     24.22392394	     24.22392394	      4.47134198	    -12.17793837	      3.59474104	     -8.89388070	      6.06567107	      3.24706814	     28.65909872	    -13.90472215	     10.30099121	     71.60827191	     44.61905845	      0.00000000	      0.00000000	     -3.32456344	    -10.34920276	    -17.50181673	     28.35188864	     47.57146977	      0.00000000	      0.00000000
